<svg width="40" height="40" viewBox="0 0 40 40" fill="none" xmlns="http://www.w3.org/2000/svg">
  <path d="M20 8C13.373 8 8 13.373 8 20C8 26.627 13.373 32 20 32C26.627 32 32 26.627 32 20C32 13.373 26.627 8 20 8Z" fill="white"/>
  <path d="M28.5 20.5C28.5 19.5 28.4 18.5 28.2 17.5H20V22.5H24.8C24.6 23.5 24.2 24.5 23.6 25.3L26.4 27.5C27.8 25.5 28.5 23.1 28.5 20.5Z" fill="#4285F4"/>
  <path d="M20 29C22.7 29 25.1 28.1 26.9 26.5L24.1 24.3C23.3 24.9 22.3 25.3 21.2 25.5L20 29Z" fill="#34A853"/>
  <path d="M15.9 23.7C15.7 23.1 15.6 22.5 15.6 21.9C15.6 21.3 15.7 20.7 15.9 20.1L13.1 18.3C12.5 19.5 12.1 20.9 12.1 22.4C12.1 23.9 12.5 25.3 13.1 26.5L15.9 23.7Z" fill="#FBBC05"/>
  <path d="M20 15.5C21.4 15.5 22.6 16 23.6 17L26.4 14.2C24.8 12.6 22.6 11.5 20 11.5C17.4 11.5 15 12.4 13.1 14.2L15.9 16C16.9 15 18.4 14.5 20 14.5V15.5Z" fill="#EA4335"/>
</svg>
